<svg id="visual" viewBox="0 0 1920 1080" width="1920" height="1080" xmlns="http://www.w3.org/2000/svg" xmlns:xlink="http://www.w3.org/1999/xlink" version="1.1"><rect x="0" y="0" width="1920" height="1080" fill="#001220"></rect><defs><linearGradient id="grad1_0" x1="43.8%" y1="100%" x2="100%" y2="0%"><stop offset="14.444444444444446%" stop-color="#001220" stop-opacity="1"></stop><stop offset="85.55555555555554%" stop-color="#001220" stop-opacity="1"></stop></linearGradient></defs><defs><linearGradient id="grad2_0" x1="0%" y1="100%" x2="56.3%" y2="0%"><stop offset="14.444444444444446%" stop-color="#001220" stop-opacity="1"></stop><stop offset="85.55555555555554%" stop-color="#001220" stop-opacity="1"></stop></linearGradient></defs><g transform="translate(1920, 1080)"><path d="M-648 0C-602.5 -69.8 -556.9 -139.5 -532.2 -220.4C-507.4 -301.3 -503.4 -393.4 -458.2 -458.2C-413 -523 -326.6 -560.5 -243.4 -587.6C-160.2 -614.7 -80.1 -631.3 0 -648L0 0Z" fill="#42708C"></path></g><g transform="translate(0, 0)"><path d="M648 0C581.5 64.9 514.9 129.9 481.3 199.4C447.8 268.9 447.1 343 415.8 415.8C384.4 488.6 322.4 560.2 248 598.7C173.6 637.2 86.8 642.6 0 648L0 0Z" fill="#42708C"></path></g></svg>