<svg id="visual" viewBox="0 0 1600 2000" width="1600" height="2000" xmlns="http://www.w3.org/2000/svg" xmlns:xlink="http://www.w3.org/1999/xlink" version="1.1"><rect x="0" y="0" width="1600" height="2000" fill="#001220"></rect><defs><linearGradient id="grad1_0" x1="0%" y1="100%" x2="100%" y2="0%"><stop offset="30%" stop-color="#42708c" stop-opacity="1"></stop><stop offset="70%" stop-color="#42708c" stop-opacity="1"></stop></linearGradient></defs><defs><linearGradient id="grad1_1" x1="0%" y1="100%" x2="100%" y2="0%"><stop offset="30%" stop-color="#42708c" stop-opacity="1"></stop><stop offset="70%" stop-color="#001220" stop-opacity="1"></stop></linearGradient></defs><defs><linearGradient id="grad2_0" x1="0%" y1="100%" x2="100%" y2="0%"><stop offset="30%" stop-color="#42708c" stop-opacity="1"></stop><stop offset="70%" stop-color="#42708c" stop-opacity="1"></stop></linearGradient></defs><defs><linearGradient id="grad2_1" x1="0%" y1="100%" x2="100%" y2="0%"><stop offset="30%" stop-color="#001220" stop-opacity="1"></stop><stop offset="70%" stop-color="#42708c" stop-opacity="1"></stop></linearGradient></defs><g transform="translate(1600, 2000)"><path d="M-896.4 0C-875.3 -160.7 -854.1 -321.4 -776.3 -448.2C-698.6 -575 -564.3 -667.9 -425.5 -737C-286.7 -806 -143.3 -851.2 0 -896.4L0 0Z" fill="#213e53"></path><path d="M-448.2 0C-437.6 -80.4 -427 -160.7 -388.2 -224.1C-349.3 -287.5 -282.2 -334 -212.8 -368.5C-143.3 -403 -71.7 -425.6 0 -448.2L0 0Z" fill="#42708c"></path></g><g transform="translate(0, 0)"><path d="M896.4 0C864.2 150.8 831.9 301.6 761.2 439.5C690.6 577.4 581.5 702.3 448.2 776.3C314.9 850.3 157.5 873.4 0 896.4L0 0Z" fill="#213e53"></path><path d="M448.2 0C432.1 75.4 416 150.8 380.6 219.7C345.3 288.7 290.7 351.2 224.1 388.2C157.5 425.2 78.7 436.7 0 448.2L0 0Z" fill="#42708c"></path></g></svg>